# xmcd CD database file
#
# Track frame offsets:
#	150
#	12451
#	19711
#	33749
#	50080
#	62933
#	77533
#	89260
#	101204
#	112862
#	122850
#	133450
#	146129
#	160062
#
# Disc length: 2329 seconds
#
# Revision: 0
# Processed by: cddbd v1.4PL0 Copyright (c) Steve Scherf et al.
# Submitted via: CDex 1.40Release
#
DISCID=c809170e
DTITLE=Willie Nelson - On The Road Again - disc 2
DYEAR=1900
DGENRE=Country
TTITLE0=Seven Spanish Angels
TTITLE1=Luckenback Texas
TTITLE2=Good Hearted Woman
TTITLE3=Angel Flying To Close To The Ground
TTITLE4=To All The Girls I've Loved Before
TTITLE5=Will You Remember Me
TTITLE6=Some Other Time
TTITLE7=I Hope So
TTITLE8=Is There Something On Your Mind
TTITLE9=Broken Promises
TTITLE10=Blame It On The Times
TTITLE11=The Shelter Of Your Arms
TTITLE12=Home Is Where You'er Happy
TTITLE13=And So Will You My Love
EXTD=ID3G: 2
EXTT0=
EXTT1=
EXTT2=
EXTT3=
EXTT4=
EXTT5=
EXTT6=
EXTT7=
EXTT8=
EXTT9=
EXTT10=
EXTT11=
EXTT12=
EXTT13=
PLAYORDER=
